<svg width="494" height="430" viewBox="0 0 494 430" fill="none" xmlns="http://www.w3.org/2000/svg">
<path d="M474.62 95.2106C485.323 92.0413 491.425 80.8151 488.248 70.1361C485.072 59.4572 473.82 53.3694 463.117 56.5388C452.414 59.7081 446.312 70.9343 449.489 81.6133C452.665 92.2922 463.917 98.38 474.62 95.2106Z" fill="white"/>
<path d="M442.991 46.1516C442.797 47.9896 441.884 49.677 440.45 50.8472C439.016 52.0173 437.178 52.5757 435.334 52.4009C433.476 52.2228 431.765 51.3168 430.577 49.8816C429.388 48.4465 428.818 46.5993 428.992 44.7455C429.182 42.9059 430.094 41.216 431.529 40.045C432.964 38.8741 434.804 38.3173 436.649 38.4963C437.57 38.5824 438.464 38.8489 439.281 39.2805C440.099 39.7121 440.822 40.3003 441.411 41.0114C442.001 41.7225 442.443 42.5425 442.714 43.4246C442.985 44.3066 443.079 45.2333 442.991 46.1516Z" fill="white"/>
<path d="M89.1765 412.015C96.6916 412.015 102.784 405.937 102.784 398.439C102.784 390.941 96.6916 384.862 89.1765 384.862C81.6613 384.862 75.5691 390.941 75.5691 398.439C75.5691 405.937 81.6613 412.015 89.1765 412.015Z" fill="white"/>
<path d="M80.7519 364.428C80.7519 366.251 80.026 368 78.734 369.289C77.442 370.578 75.6896 371.302 73.8624 371.302C72.0352 371.302 70.2828 370.578 68.9908 369.289C67.6988 368 66.9729 366.251 66.9729 364.428C66.9729 362.605 67.6988 360.856 68.9908 359.567C70.2828 358.278 72.0352 357.554 73.8624 357.554C75.6896 357.554 77.442 358.278 78.734 359.567C80.026 360.856 80.7519 362.605 80.7519 364.428Z" fill="white"/>
<path d="M258.389 165.473H229.279C226.888 155.588 222.962 146.136 217.645 137.461L238.236 116.885C239.119 116.014 239.82 114.976 240.298 113.832C240.777 112.688 241.023 111.461 241.023 110.222C241.023 108.983 240.777 107.756 240.298 106.612C239.82 105.468 239.119 104.43 238.236 103.559L218.976 84.3423C218.102 83.4613 217.062 82.7619 215.916 82.2846C214.769 81.8073 213.54 81.5616 212.297 81.5616C211.055 81.5616 209.825 81.8073 208.679 82.2846C207.533 82.7619 206.493 83.4613 205.619 84.3423L185.044 104.871C176.351 99.5641 166.877 95.6524 156.968 93.2787V64.2352C156.968 61.7491 155.978 59.3649 154.216 57.6069C152.454 55.849 150.064 54.8613 147.572 54.8613H120.295C117.803 54.8613 115.414 55.849 113.652 57.6069C111.89 59.3649 110.9 61.7491 110.9 64.2352V93.2787C100.996 95.6554 91.528 99.567 82.8396 104.871L62.1858 84.3892C61.3121 83.5082 60.272 82.8088 59.1257 82.3315C57.9794 81.8542 56.7495 81.6085 55.5074 81.6085C54.2652 81.6085 53.0354 81.8542 51.8891 82.3315C50.7428 82.8088 49.7027 83.5082 48.829 84.3892L29.5689 103.606C28.6859 104.477 27.985 105.515 27.5066 106.659C27.0282 107.803 26.7819 109.03 26.7819 110.269C26.7819 111.508 27.0282 112.735 27.5066 113.879C27.985 115.023 28.6859 116.06 29.5689 116.932L50.16 137.461C44.8424 146.136 40.9169 155.588 38.5256 165.473H9.41618C6.92442 165.473 4.53474 166.461 2.7728 168.219C1.01086 169.977 0.0209961 172.361 0.0209961 174.847V202.032C0.0209961 204.518 1.01086 206.902 2.7728 208.66C4.53474 210.418 6.92442 211.405 9.41618 211.405H38.5256C40.9142 221.287 44.84 230.734 50.16 239.402L29.5689 259.947C28.6859 260.818 27.985 261.856 27.5066 263C27.0282 264.144 26.7819 265.371 26.7819 266.61C26.7819 267.849 27.0282 269.076 27.5066 270.22C27.985 271.364 28.6859 272.402 29.5689 273.273L48.829 292.49C49.7027 293.371 50.7428 294.07 51.8891 294.547C53.0354 295.025 54.2652 295.27 55.5074 295.27C56.7495 295.27 57.9794 295.025 59.1257 294.547C60.272 294.07 61.3121 293.371 62.1858 292.49L82.7769 271.961C91.4654 277.265 100.934 281.177 110.837 283.553V312.597C110.837 315.083 111.827 317.467 113.589 319.225C115.351 320.983 117.741 321.971 120.232 321.971H147.463C149.955 321.971 152.344 320.983 154.106 319.225C155.868 317.467 156.858 315.083 156.858 312.597V283.553C166.767 281.18 176.241 277.268 184.934 271.961L205.509 292.49C206.383 293.371 207.423 294.07 208.569 294.547C209.716 295.025 210.946 295.27 212.188 295.27C213.43 295.27 214.66 295.025 215.806 294.547C216.952 294.07 217.993 293.371 218.866 292.49L238.126 273.273C239.009 272.402 239.71 271.364 240.189 270.22C240.667 269.076 240.913 267.849 240.913 266.61C240.913 265.371 240.667 264.144 240.189 263C239.71 261.856 239.009 260.818 238.126 259.947L217.551 239.402C222.895 230.768 226.852 221.353 229.279 211.499H258.373C260.865 211.499 263.254 210.512 265.016 208.754C266.778 206.996 267.768 204.611 267.768 202.125V174.941C267.781 173.703 267.547 172.476 267.082 171.329C266.616 170.181 265.927 169.138 265.055 168.258C264.183 167.377 263.145 166.678 262.001 166.2C260.857 165.722 259.629 165.475 258.389 165.473ZM133.902 260.915C114.652 260.911 96.1917 253.278 82.5812 239.696C68.9706 226.113 61.3246 207.693 61.3246 188.486C61.3246 169.28 68.9706 150.859 82.5812 137.277C96.1917 123.694 114.652 116.061 133.902 116.057C153.155 116.057 171.62 123.688 185.234 137.271C198.848 150.854 206.496 169.277 206.496 188.486C206.496 207.696 198.848 226.118 185.234 239.701C171.62 253.284 153.155 260.915 133.902 260.915Z" fill="white"/>
<path d="M116.618 144.187H106.785C85.1756 144.187 66.0721 161.372 61.9852 183.932C61.8286 185.823 61.7346 187.729 61.7346 189.65C61.7359 204.091 66.0891 218.198 74.2288 230.139C82.3686 242.08 93.9188 251.303 107.38 256.611V156.904C107.378 154.083 108.271 151.334 109.931 149.05C111.59 146.766 113.931 145.063 116.618 144.187Z" fill="#212123"/>
<path d="M104.98 145.038C97.2435 144.689 80.584 152.331 69.1399 168.65" stroke="white" stroke-width="1.2" stroke-linecap="round"/>
<path d="M202.287 184.979L197.949 195.353L196.117 178.464C194.019 159.029 179.112 144.375 161.386 144.328H151.177C153.768 145.242 156.011 146.934 157.598 149.172C159.185 151.41 160.038 154.084 160.04 156.826V222.256C160.04 233.713 160.04 245.134 160.04 256.518C160.04 255.502 169.967 254.002 171.001 253.846C181.837 252.409 194.489 256.111 204.557 250.471C208.423 248.312 211.784 245.356 214.417 241.801C217.049 238.245 218.893 234.171 219.824 229.849L228.421 189.541L202.287 184.979Z" fill="#212123"/>
<path d="M183.528 230.38C183.429 230.395 183.329 230.395 183.23 230.38C183.041 230.294 182.892 230.14 182.814 229.948C182.735 229.757 182.733 229.542 182.807 229.349L192.546 206.195C192.586 206.099 192.644 206.012 192.717 205.939C192.791 205.866 192.878 205.808 192.975 205.768C193.071 205.729 193.174 205.709 193.278 205.71C193.382 205.711 193.484 205.733 193.58 205.774C193.674 205.813 193.76 205.87 193.831 205.943C193.903 206.015 193.959 206.101 193.997 206.196C194.035 206.291 194.054 206.392 194.052 206.494C194.05 206.595 194.028 206.696 193.987 206.789L184.263 229.958C184.193 230.09 184.086 230.2 183.956 230.275C183.826 230.349 183.678 230.386 183.528 230.38Z" fill="white"/>
<path d="M151.161 144.296L116.618 144.187C113.936 145.062 111.599 146.759 109.94 149.037C108.281 151.315 107.385 154.057 107.38 156.873V256.58C115.82 259.908 124.814 261.615 133.89 261.61C142.83 261.626 151.694 259.973 160.024 256.736V156.748C160.013 154.014 159.156 151.35 157.569 149.122C155.983 146.893 153.745 145.207 151.161 144.296Z" fill="#E7EBE7"/>
<path d="M86.4282 240.098H86.35C86.2476 240.09 86.1479 240.062 86.0567 240.015C85.9655 239.968 85.8846 239.903 85.819 239.825C85.7533 239.746 85.704 239.655 85.6742 239.557C85.6444 239.459 85.6346 239.356 85.6453 239.254L90.1549 187.338C90.1605 187.236 90.1873 187.135 90.2336 187.043C90.28 186.951 90.3448 186.869 90.4242 186.803C90.5035 186.737 90.5956 186.688 90.6947 186.659C90.7939 186.631 90.8979 186.622 91.0004 186.635C91.1033 186.643 91.2037 186.671 91.2957 186.718C91.3877 186.765 91.4695 186.829 91.5364 186.908C91.6034 186.986 91.6541 187.077 91.6857 187.175C91.7173 187.273 91.7292 187.376 91.7207 187.479L87.1955 239.395C87.1797 239.587 87.092 239.766 86.9498 239.896C86.8076 240.026 86.6213 240.099 86.4282 240.098Z" fill="white"/>
<path d="M89.1525 208.742C89.005 208.746 88.8595 208.707 88.7342 208.629C88.6089 208.551 88.5094 208.438 88.4479 208.304L80.8382 192.681C80.7906 192.589 80.7621 192.489 80.7545 192.386C80.7469 192.283 80.7604 192.179 80.794 192.081C80.8277 191.983 80.8808 191.893 80.9503 191.817C81.0198 191.74 81.1042 191.678 81.1983 191.635C81.2896 191.59 81.389 191.563 81.4907 191.557C81.5924 191.551 81.6943 191.565 81.7905 191.598C81.8867 191.632 81.9753 191.684 82.051 191.752C82.1268 191.82 82.1882 191.902 82.2317 191.994L89.8572 207.617C89.9447 207.804 89.9561 208.018 89.8889 208.213C89.8217 208.408 89.6813 208.57 89.497 208.664C89.3883 208.712 89.2713 208.738 89.1525 208.742Z" fill="white"/>
<path d="M224.303 133.641L224.162 133.907C224.146 133.212 223.975 132.529 223.661 131.907C223.433 131.456 223.108 131.06 222.711 130.747C222.313 130.434 221.852 130.212 221.359 130.095C220.276 129.958 219.182 130.253 218.316 130.918C217.451 131.582 216.884 132.561 216.74 133.641L211.056 160.295C210.903 158.864 210.593 157.455 210.132 156.092C209.799 154.46 209.24 152.883 208.472 151.405C207.889 150.14 206.868 149.127 205.596 148.553C204.325 147.979 202.888 147.882 201.551 148.28C201.298 148.346 201.062 148.461 200.855 148.62C200.648 148.778 200.474 148.976 200.345 149.202C200.204 149.644 200.204 150.119 200.345 150.561C201.128 154.951 202.412 159.232 203.085 163.622C202.015 165.577 201.345 167.724 201.114 169.94C200.883 172.155 201.095 174.394 201.739 176.527C202.438 178.621 202.761 180.821 202.694 183.026L228.734 188.416L231.866 173.621C231.866 173.621 241.997 132.782 224.303 133.641Z" fill="#FF9C9C"/>
<path d="M218.869 169.575C218.766 169.573 218.665 169.55 218.57 169.509C218.476 169.468 218.391 169.409 218.32 169.335C218.248 169.261 218.193 169.173 218.155 169.078C218.118 168.982 218.099 168.88 218.102 168.778C218.27 166.818 217.691 164.867 216.48 163.315C215.27 161.763 213.517 160.723 211.572 160.404C211.37 160.373 211.187 160.264 211.064 160.1C210.941 159.937 210.888 159.732 210.915 159.529C210.942 159.324 211.049 159.138 211.214 159.012C211.378 158.886 211.586 158.83 211.791 158.857C214.095 159.264 216.168 160.504 217.612 162.34C219.057 164.176 219.772 166.48 219.62 168.809C219.617 169.008 219.537 169.198 219.397 169.341C219.257 169.483 219.068 169.567 218.869 169.575Z" fill="#FF6969"/>
<path d="M224.757 133.641C224.84 137.025 224.72 140.411 224.396 143.781C224.24 145.482 223.984 147.172 223.629 148.843C223.306 150.588 222.681 152.264 221.782 153.795C221.669 153.969 221.492 154.091 221.29 154.135C221.087 154.179 220.876 154.141 220.701 154.03C220.527 153.917 220.404 153.741 220.36 153.539C220.316 153.337 220.354 153.126 220.466 152.952C221.313 151.599 221.913 150.108 222.236 148.546C222.633 146.94 222.936 145.312 223.144 143.671C223.556 140.359 223.781 137.026 223.817 133.688C223.815 133.626 223.826 133.564 223.848 133.506C223.871 133.448 223.906 133.396 223.95 133.352C223.994 133.308 224.046 133.274 224.104 133.251C224.162 133.228 224.225 133.217 224.287 133.22C224.405 133.215 224.52 133.257 224.607 133.336C224.695 133.414 224.748 133.524 224.757 133.641Z" fill="#FF6969"/>
<path d="M194.437 178.723C194.598 171.175 191.498 153.36 170.513 144.931" stroke="white" stroke-width="1.2" stroke-linecap="round"/>
<path d="M228.656 134.141C229.132 135.824 229.374 137.564 229.376 139.312C229.4 141.03 229.305 142.748 229.094 144.453C228.906 146.155 228.577 147.843 228.233 149.514C227.888 151.186 227.419 152.827 226.933 154.467C226.906 154.567 226.859 154.66 226.796 154.741C226.732 154.822 226.652 154.889 226.561 154.939C226.471 154.989 226.371 155.019 226.268 155.03C226.165 155.04 226.061 155.029 225.962 154.998C225.763 154.94 225.595 154.806 225.495 154.624C225.395 154.442 225.372 154.228 225.43 154.029C225.947 152.467 226.432 150.905 226.839 149.218C227.246 147.53 227.591 145.968 227.81 144.312C228.068 142.673 228.209 141.018 228.233 139.359C228.283 137.725 228.114 136.091 227.732 134.501C227.698 134.378 227.713 134.248 227.775 134.137C227.836 134.026 227.939 133.943 228.061 133.907C228.172 133.871 228.292 133.874 228.4 133.917C228.509 133.96 228.599 134.039 228.656 134.141Z" fill="#FF6969"/>
<path d="M232.539 138.172C232.878 140.992 233.046 143.83 233.04 146.671C233.029 148.108 232.924 149.543 232.727 150.967C232.576 152.487 232.089 153.954 231.302 155.264C231.19 155.437 231.013 155.56 230.81 155.604C230.608 155.648 230.396 155.61 230.222 155.498C230.047 155.386 229.925 155.209 229.881 155.007C229.837 154.805 229.875 154.594 229.987 154.42C230.677 153.324 231.126 152.094 231.302 150.811C231.535 149.457 231.681 148.09 231.74 146.718C231.868 143.931 231.816 141.139 231.584 138.359C231.577 138.301 231.583 138.241 231.6 138.185C231.617 138.128 231.646 138.076 231.684 138.03C231.722 137.985 231.769 137.948 231.821 137.921C231.874 137.895 231.932 137.879 231.991 137.875C232.103 137.845 232.222 137.86 232.324 137.915C232.426 137.97 232.503 138.062 232.539 138.172Z" fill="#FF6969"/>
<path d="M200.735 181.913L197.4 191.177L229.578 196.833L230.831 188.131L228.717 187.693L202.692 182.319L200.735 181.913Z" fill="#E7EBE7"/>
<path d="M196.039 117.128C195.171 112.981 193.431 109.066 190.935 105.64C188.438 102.214 185.241 99.3564 181.555 97.255C181.914 93.2578 181.57 89.2287 180.537 85.3501C179.179 80.2028 176.638 75.4419 173.115 71.4455C173.339 70.4612 173.506 69.4649 173.616 68.4615C173.796 66.7946 173.308 65.1242 172.257 63.8156C171.207 62.5069 169.68 61.6665 168.01 61.4779L162.529 60.8843C161.825 60.1968 161.089 59.5407 160.337 58.9314C157.077 55.4976 152.852 53.1285 148.217 52.1353C147.144 51.9113 146.055 51.7703 144.96 51.7135C139.881 50.7374 134.646 50.919 129.646 52.2446C123.505 53.8646 117.932 57.1472 113.544 61.7295C109.156 66.3119 106.123 72.0156 104.78 78.2103C96.8927 78.887 89.434 82.0825 83.5106 87.3227C77.5871 92.5629 73.5145 99.5687 71.897 107.301C70.9113 112.02 70.867 116.886 71.7666 121.622C72.6662 126.358 74.4921 130.871 77.14 134.902C79.7879 138.934 83.206 142.406 87.1989 145.12C91.1919 147.833 95.6815 149.735 100.411 150.717C103.911 151.445 107.498 151.661 111.059 151.358C116.659 150.833 122.066 149.044 126.871 146.126C131.675 143.208 135.751 139.238 138.791 134.516C140.912 139.606 144.38 144.026 148.823 147.303C153.266 150.581 158.517 152.592 164.017 153.123C166.929 153.369 169.862 153.19 172.723 152.592C180.528 150.973 187.368 146.327 191.741 139.677C196.113 133.026 197.659 124.915 196.039 117.128Z" fill="#FF6969"/>
<path d="M171.032 77.6167C168.441 83.1531 164.18 87.7427 158.845 90.7431C153.511 93.7434 147.369 95.0042 141.28 94.3491L122.913 92.3181L122.615 93.7554L121.049 93.4742C118.616 93.0544 116.114 93.6076 114.087 95.014C112.059 96.4203 110.667 98.5668 110.214 100.989C109.788 103.419 110.341 105.919 111.751 107.946C113.161 109.973 115.315 111.363 117.745 111.816L118.998 112.035C118.536 116.272 119.257 120.554 121.081 124.408L115.6 144.968C113.612 155.201 115.146 156.217 124.995 158.123C134.845 160.029 147.873 162.107 149.877 151.874L153.729 137.422C157.565 136.118 160.993 133.838 163.676 130.808C166.359 127.778 168.204 124.102 169.027 120.143L174.179 94.5834C175.37 88.7346 174.242 82.6528 171.032 77.6167Z" fill="#FF9C9C"/>
<path d="M114.097 100.036H114.019C113.968 100.029 113.918 100.011 113.874 99.9837C113.83 99.9564 113.792 99.9204 113.763 99.8779C113.734 99.8353 113.713 99.7872 113.704 99.7364C113.694 99.6857 113.694 99.6335 113.706 99.5831C113.768 98.917 114.021 98.2829 114.435 97.7565C114.848 97.2301 115.405 96.8337 116.039 96.6146C116.623 96.4183 117.246 96.3647 117.855 96.4584C117.906 96.4638 117.955 96.4798 117.999 96.5053C118.043 96.5309 118.081 96.5656 118.11 96.6069C118.14 96.6482 118.16 96.6954 118.17 96.7452C118.18 96.795 118.18 96.8464 118.168 96.8959C118.161 96.9475 118.143 96.997 118.116 97.0416C118.089 97.0862 118.053 97.1249 118.011 97.1554C117.968 97.186 117.92 97.2078 117.869 97.2196C117.818 97.2314 117.766 97.2328 117.714 97.224C117.334 97.1575 116.945 97.1708 116.571 97.263C116.196 97.3553 115.845 97.5245 115.54 97.7598C115.235 97.995 114.983 98.2912 114.799 98.6294C114.615 98.9675 114.504 99.3402 114.473 99.7237C114.455 99.8106 114.408 99.8889 114.34 99.9457C114.272 100.002 114.186 100.034 114.097 100.036Z" fill="#FF6969"/>
<path opacity="0.46" d="M114.958 102.176C114.473 104.91 116.352 107.613 119.374 108.988L121.77 97.3174C118.387 97.458 115.522 99.364 114.958 102.176Z" fill="#FF6969"/>
<path opacity="0.46" d="M140.685 138.328L138.086 137.797C134.438 137.064 131.009 135.501 128.065 133.231C125.121 130.96 122.742 128.042 121.112 124.705C120.329 130.313 124.369 136.75 131.306 140.172C138.509 143.749 146.432 142.843 150.284 138.375C147.114 138.999 143.85 138.984 140.685 138.328Z" fill="#FF6969"/>
<path d="M164.033 110.878C164.206 110.914 164.384 110.915 164.557 110.881C164.731 110.847 164.895 110.778 165.042 110.679C165.188 110.58 165.312 110.452 165.408 110.304C165.504 110.156 165.568 109.99 165.598 109.816L166.068 107.222C166.104 107.05 166.105 106.872 166.071 106.699C166.037 106.526 165.968 106.361 165.868 106.216C165.769 106.07 165.641 105.945 165.493 105.85C165.344 105.755 165.177 105.69 165.003 105.66C164.83 105.622 164.651 105.619 164.477 105.652C164.302 105.686 164.137 105.754 163.99 105.854C163.844 105.953 163.719 106.082 163.624 106.231C163.529 106.38 163.465 106.548 163.438 106.722L162.968 109.316C162.929 109.489 162.927 109.667 162.96 109.841C162.993 110.015 163.062 110.18 163.162 110.327C163.261 110.473 163.39 110.598 163.54 110.692C163.69 110.787 163.857 110.85 164.033 110.878Z" fill="#212123"/>
<path d="M140.983 107.254C141.156 107.292 141.335 107.295 141.51 107.261C141.684 107.228 141.849 107.16 141.996 107.06C142.143 106.961 142.268 106.832 142.363 106.683C142.458 106.533 142.521 106.366 142.549 106.191L143.019 103.598C143.057 103.425 143.06 103.246 143.026 103.072C142.993 102.898 142.924 102.733 142.825 102.587C142.725 102.441 142.596 102.316 142.446 102.221C142.297 102.126 142.129 102.063 141.954 102.035C141.781 101.999 141.602 101.998 141.429 102.033C141.256 102.067 141.091 102.136 140.945 102.235C140.799 102.334 140.674 102.461 140.578 102.61C140.483 102.758 140.418 102.924 140.388 103.098L139.918 105.691C139.882 105.864 139.881 106.042 139.915 106.215C139.95 106.388 140.019 106.552 140.118 106.698C140.217 106.844 140.345 106.968 140.494 107.064C140.642 107.159 140.809 107.224 140.983 107.254Z" fill="#212123"/>
<path d="M162.341 102.395C162.905 102.614 163.506 102.726 164.111 102.723L165.958 102.895C166.506 102.895 167.148 103.051 167.775 103.16C168.357 103.31 168.963 103.348 169.56 103.27C170.061 103.145 170.28 102.645 169.763 101.942C168.814 100.909 167.501 100.282 166.099 100.192C165.441 100.063 164.763 100.071 164.108 100.216C163.453 100.361 162.836 100.64 162.294 101.036C161.699 101.614 161.934 102.16 162.341 102.395Z" fill="#212123"/>
<path d="M139.699 98.0517C140.27 98.2579 140.878 98.3431 141.484 98.3017C142.126 98.3017 142.768 98.3017 143.332 98.3017L145.179 98.4892C145.773 98.6153 146.386 98.6153 146.98 98.4892C147.465 98.3329 147.669 97.7861 147.105 97.0674C146.115 96.0437 144.758 95.4538 143.332 95.427C142.657 95.3329 141.971 95.3862 141.319 95.5831C140.668 95.78 140.067 96.1159 139.558 96.5675C138.994 97.2549 139.214 97.833 139.699 98.0517Z" fill="#212123"/>
<path d="M154.324 115.144H153.807L150.237 114.487C150.134 114.472 150.036 114.437 149.947 114.383C149.858 114.328 149.781 114.257 149.721 114.172C149.661 114.087 149.619 113.991 149.598 113.89C149.576 113.788 149.575 113.683 149.595 113.581C149.633 113.379 149.75 113.199 149.92 113.082C150.09 112.965 150.3 112.92 150.503 112.956L154.089 113.597C154.305 113.642 154.53 113.631 154.741 113.565C154.952 113.5 155.142 113.382 155.295 113.222C155.452 113.068 155.568 112.877 155.631 112.667C155.694 112.456 155.702 112.234 155.655 112.019L154.34 105.02C154.303 104.815 154.348 104.604 154.465 104.432C154.582 104.259 154.762 104.14 154.966 104.098C155.169 104.062 155.379 104.107 155.549 104.224C155.719 104.341 155.836 104.52 155.874 104.723L157.236 111.769C157.321 112.234 157.292 112.711 157.153 113.163C157.014 113.614 156.769 114.025 156.438 114.362C155.863 114.889 155.104 115.17 154.324 115.144Z" fill="#FF6969"/>
<path d="M147.309 121.58C144.439 121.66 141.628 120.754 139.348 119.013C137.068 117.273 135.456 114.804 134.782 112.019C134.762 111.918 134.761 111.815 134.781 111.714C134.8 111.613 134.84 111.517 134.896 111.432C134.953 111.346 135.026 111.273 135.111 111.215C135.197 111.158 135.292 111.118 135.393 111.097C135.494 111.077 135.598 111.076 135.699 111.096C135.8 111.115 135.896 111.154 135.981 111.211C136.067 111.267 136.141 111.34 136.199 111.425C136.256 111.51 136.296 111.606 136.317 111.706C136.317 112.113 138.54 121.658 150.205 119.768C150.307 119.75 150.412 119.752 150.513 119.775C150.613 119.798 150.709 119.84 150.793 119.899C150.878 119.959 150.95 120.035 151.004 120.122C151.059 120.209 151.097 120.307 151.114 120.409C151.145 120.611 151.096 120.818 150.976 120.985C150.855 121.152 150.674 121.265 150.472 121.299C149.427 121.477 148.369 121.571 147.309 121.58Z" fill="#FF6969"/>
<path d="M482.42 309.433L455.8 297.2C457.799 287.171 458.206 276.891 457.006 266.735L484.502 256.627C486.864 255.755 488.783 253.984 489.836 251.702C490.89 249.42 490.994 246.814 490.124 244.457L480.65 218.803C480.219 217.635 479.562 216.564 478.715 215.649C477.869 214.735 476.85 213.996 475.717 213.475C474.584 212.954 473.359 212.661 472.113 212.613C470.866 212.565 469.622 212.763 468.452 213.195L440.987 223.287C435.311 214.766 428.331 207.186 420.302 200.821L432.563 174.262C433.085 173.129 433.378 171.904 433.424 170.657C433.471 169.411 433.27 168.168 432.833 166.999C432.397 165.831 431.733 164.76 430.881 163.848C430.028 162.936 429.003 162.201 427.865 161.685L403.077 150.343C401.942 149.822 400.714 149.529 399.465 149.483C398.216 149.437 396.97 149.637 395.799 150.072C394.627 150.508 393.554 151.17 392.64 152.021C391.726 152.872 390.989 153.894 390.472 155.03L378.196 181.589C368.144 179.589 357.841 179.178 347.661 180.37L337.546 152.967C336.672 150.611 334.897 148.697 332.61 147.645C330.323 146.594 327.711 146.491 325.348 147.359L299.636 156.733C297.273 157.608 295.355 159.382 294.301 161.666C293.247 163.951 293.144 166.559 294.015 168.919L304.13 196.322C295.609 202.005 288.032 208.984 281.676 217.007L255.056 204.774C253.919 204.252 252.691 203.96 251.44 203.913C250.19 203.867 248.943 204.067 247.77 204.502C246.598 204.938 245.523 205.6 244.607 206.451C243.692 207.302 242.954 208.325 242.435 209.461L230.958 234.286C229.931 236.566 229.849 239.159 230.729 241.499C231.609 243.84 233.379 245.739 235.655 246.784L262.275 259.017C260.283 269.053 259.877 279.337 261.069 289.498L233.604 299.591C232.432 300.019 231.356 300.674 230.438 301.518C229.52 302.362 228.778 303.378 228.254 304.509C227.731 305.639 227.436 306.862 227.386 308.106C227.337 309.351 227.534 310.593 227.967 311.761L237.44 337.414C238.32 339.761 240.096 341.665 242.378 342.71C244.661 343.756 247.265 343.857 249.623 342.992L277.104 332.899C282.799 341.401 289.795 348.961 297.836 355.303L285.559 381.862C284.533 384.143 284.451 386.735 285.331 389.076C286.211 391.416 287.981 393.316 290.257 394.361L315.123 405.813C316.26 406.334 317.488 406.627 318.739 406.673C319.989 406.72 321.236 406.519 322.409 406.084C323.581 405.649 324.656 404.986 325.572 404.136C326.487 403.285 327.225 402.262 327.744 401.126L340.004 374.566C350.056 376.566 360.359 376.977 370.539 375.785L380.67 403.188C381.541 405.547 383.315 407.465 385.602 408.52C387.889 409.574 390.503 409.68 392.868 408.812L418.564 399.36C419.736 398.932 420.812 398.277 421.73 397.433C422.648 396.589 423.39 395.573 423.913 394.442C424.437 393.312 424.732 392.089 424.781 390.845C424.831 389.6 424.633 388.358 424.201 387.19L414.038 359.912C422.557 354.225 430.133 347.246 436.493 339.227L463.113 351.475C464.249 351.994 465.476 352.285 466.725 352.33C467.973 352.375 469.218 352.175 470.389 351.739C471.56 351.304 472.633 350.643 473.548 349.793C474.462 348.944 475.199 347.923 475.718 346.788L487.196 321.963C487.708 320.828 487.991 319.603 488.028 318.358C488.066 317.113 487.857 315.874 487.413 314.71C486.969 313.546 486.3 312.481 485.443 311.575C484.586 310.67 483.559 309.942 482.42 309.433ZM328.417 344.242C319.712 340.233 311.884 334.553 305.38 327.526C298.875 320.499 293.822 312.262 290.508 303.286C287.194 294.31 285.685 284.771 286.066 275.213C286.448 265.655 288.712 256.266 292.731 247.581C300.845 230.041 315.61 216.435 333.778 209.755C351.946 203.075 372.029 203.868 389.611 211.96C407.191 220.056 420.828 234.788 427.523 252.915C434.218 271.041 433.423 291.079 425.313 308.621C421.296 317.309 415.604 325.123 408.56 331.616C401.516 338.108 393.26 343.153 384.261 346.461C375.263 349.768 365.7 351.275 356.118 350.894C346.536 350.514 337.123 348.253 328.417 344.242Z" fill="white"/>
<path d="M430.637 264.032C423.355 245.628 405.583 232.614 385.681 232.614L352.296 232.708C344.545 232.708 336.794 232.551 329.043 232.473C321.966 232.473 314.089 231.552 307.262 233.739C302.939 235.127 298.932 237.351 295.471 240.285C291.987 243.245 289.142 246.881 287.109 250.971L273.549 273.078L271.827 244.878L272.265 227.38L240.948 219.74C240.948 219.74 228.061 283.405 227.888 288.061C227.137 308.371 240.415 322.557 256.074 326.056C267.301 327.915 285.825 325.259 299.918 320.822C307.232 330.963 317.057 339.037 328.433 344.257C337.139 348.266 346.551 350.523 356.132 350.902C365.713 351.28 375.275 349.772 384.272 346.462C393.268 343.153 401.523 338.108 408.565 331.615C415.607 325.122 421.298 317.308 425.313 308.621C431.773 294.695 433.637 279.083 430.637 264.032Z" fill="#D8F366"/>
<path d="M240.055 218.038L237.237 227.849L274.05 237.145L274.927 225.74L272.672 225.224L242.514 218.569L240.055 218.038Z" fill="white"/>
<path d="M291.275 190.463C291.248 190.158 291.16 189.863 291.014 189.594C290.869 189.325 290.67 189.089 290.429 188.9C289.209 187.841 287.647 187.257 286.029 187.257C284.412 187.257 282.849 187.841 281.629 188.9C280.119 190.08 278.781 191.463 277.652 193.009C276.516 194.239 275.513 195.585 274.661 197.024L281.363 166.075C281.717 164.877 281.588 163.589 281.003 162.486C280.417 161.382 279.423 160.551 278.231 160.169C277.653 160.053 277.057 160.068 276.485 160.211C275.914 160.354 275.382 160.623 274.927 160.997C274.269 161.489 273.733 162.125 273.361 162.856V162.513C255.041 153.139 246.162 201.352 246.162 201.352L242.436 218.537L272.61 225.193C273.6 222.826 274.993 220.648 276.728 218.756C278.421 216.799 279.707 214.527 280.514 212.07C281.32 209.614 281.63 207.022 281.426 204.445C284.244 200.102 287.689 196.181 290.57 191.947C290.953 191.536 291.199 191.018 291.275 190.463Z" fill="#FF9C9C"/>
<path d="M262.447 203.039C262.339 203.034 262.232 203.007 262.134 202.961C261.946 202.879 261.799 202.726 261.723 202.536C261.646 202.346 261.648 202.134 261.727 201.946C262.679 199.432 264.526 197.356 266.914 196.114C269.302 194.872 272.065 194.551 274.676 195.212C274.873 195.274 275.038 195.409 275.138 195.589C275.237 195.77 275.262 195.982 275.208 196.181C275.18 196.279 275.132 196.371 275.067 196.451C275.003 196.531 274.923 196.598 274.833 196.647C274.743 196.696 274.644 196.727 274.542 196.739C274.44 196.75 274.336 196.741 274.238 196.712C271.992 196.125 269.608 196.402 267.557 197.487C265.507 198.572 263.94 200.387 263.167 202.571C263.105 202.709 263.004 202.827 262.876 202.91C262.748 202.993 262.6 203.038 262.447 203.039Z" fill="#FF6969"/>
<path d="M273.846 162.747C272.273 166.309 270.914 169.961 269.775 173.684C269.199 175.524 268.733 177.397 268.382 179.292C267.989 181.114 267.904 182.989 268.131 184.839C268.163 185.043 268.114 185.252 267.994 185.421C267.874 185.591 267.693 185.707 267.489 185.745C267.284 185.777 267.074 185.728 266.905 185.608C266.735 185.489 266.619 185.308 266.581 185.104C266.359 183.065 266.496 181.003 266.988 179.011C267.396 177.076 267.918 175.166 268.554 173.293C269.814 169.564 271.294 165.912 272.985 162.357C273.01 162.3 273.047 162.249 273.092 162.206C273.137 162.164 273.191 162.131 273.249 162.109C273.307 162.087 273.369 162.077 273.432 162.079C273.494 162.082 273.555 162.096 273.611 162.122C273.719 162.176 273.802 162.27 273.843 162.383C273.884 162.497 273.88 162.622 273.831 162.732L273.846 162.747Z" fill="#FF6969"/>
<path d="M269.337 161.763C268.16 163.267 267.19 164.923 266.455 166.684C265.683 168.46 265.034 170.287 264.514 172.153C263.966 174.012 263.574 175.918 263.199 177.824L262.729 180.698L262.384 183.604C262.361 183.809 262.257 183.996 262.096 184.125C261.934 184.254 261.729 184.314 261.523 184.292C261.42 184.28 261.32 184.248 261.23 184.198C261.139 184.147 261.059 184.08 260.995 183.998C260.931 183.917 260.884 183.823 260.856 183.724C260.829 183.624 260.821 183.52 260.834 183.417L261.273 180.48L261.821 177.558C262.243 175.621 262.698 173.684 263.387 171.793C263.969 169.886 264.686 168.022 265.532 166.216C266.336 164.373 267.39 162.649 268.663 161.091C268.708 161.046 268.762 161.01 268.821 160.985C268.88 160.961 268.944 160.948 269.008 160.948C269.072 160.948 269.135 160.961 269.194 160.985C269.253 161.01 269.307 161.046 269.352 161.091C269.439 161.182 269.488 161.302 269.488 161.427C269.488 161.553 269.439 161.673 269.352 161.763H269.337Z" fill="#FF6969"/>
<path d="M263.402 163.903C261.812 166.73 260.41 169.658 259.206 172.668C258.585 174.158 258.062 175.688 257.64 177.246C257.208 178.704 257.085 180.237 257.28 181.745C257.317 181.948 257.274 182.157 257.161 182.329C257.047 182.501 256.871 182.622 256.669 182.667C256.49 182.672 256.315 182.616 256.173 182.508C256.03 182.4 255.929 182.246 255.886 182.073C255.678 180.327 255.855 178.557 256.403 176.886C256.871 175.287 257.447 173.721 258.125 172.199C259.447 169.183 260.964 166.255 262.666 163.435C262.731 163.334 262.832 163.261 262.948 163.232C263.065 163.203 263.188 163.22 263.292 163.279C263.345 163.306 263.391 163.344 263.428 163.39C263.466 163.436 263.493 163.489 263.509 163.546C263.525 163.603 263.53 163.663 263.522 163.722C263.514 163.78 263.495 163.837 263.465 163.888L263.402 163.903Z" fill="#FF6969"/>
<path d="M276.117 286.092C275.925 286.089 275.741 286.016 275.599 285.886C275.458 285.757 275.369 285.58 275.35 285.389L271.999 256.392C271.977 256.187 272.037 255.982 272.166 255.821C272.295 255.66 272.483 255.557 272.688 255.533C272.791 255.52 272.895 255.528 272.995 255.555C273.096 255.583 273.189 255.63 273.271 255.694C273.352 255.758 273.42 255.837 273.471 255.928C273.521 256.018 273.553 256.118 273.565 256.221L276.9 285.186C276.922 285.391 276.862 285.596 276.733 285.757C276.604 285.918 276.416 286.022 276.211 286.045L276.117 286.092Z" fill="#212123"/>
<path d="M299.868 320.9C299.742 320.755 299.674 320.568 299.676 320.376C299.679 320.185 299.752 320 299.882 319.859L308.301 311.379C308.44 311.227 308.633 311.135 308.839 311.124C309.045 311.113 309.247 311.184 309.401 311.322C309.479 311.39 309.543 311.473 309.589 311.566C309.635 311.659 309.662 311.76 309.669 311.863C309.676 311.967 309.661 312.071 309.628 312.169C309.594 312.266 309.541 312.357 309.472 312.434L301.065 320.881C300.927 321.034 300.733 321.126 300.527 321.137C300.321 321.147 300.119 321.076 299.965 320.939L299.868 320.9Z" fill="#212123"/>
<path d="M407.305 330.212C407.11 330.213 406.922 330.142 406.777 330.012C406.633 329.882 406.542 329.702 406.522 329.509L401.731 276.656C401.72 276.554 401.73 276.451 401.76 276.353C401.789 276.255 401.839 276.164 401.904 276.085C401.97 276.007 402.051 275.942 402.142 275.895C402.233 275.848 402.333 275.82 402.435 275.812C402.538 275.801 402.642 275.811 402.741 275.841C402.841 275.87 402.933 275.919 403.013 275.984C403.093 276.05 403.159 276.13 403.208 276.221C403.257 276.313 403.287 276.412 403.297 276.515L408.088 329.368C408.105 329.573 408.041 329.777 407.909 329.935C407.777 330.093 407.588 330.192 407.383 330.212H407.305Z" fill="#212123"/>
<path d="M404.409 298.263C404.285 298.259 404.163 298.233 404.048 298.185C403.867 298.088 403.73 297.925 403.666 297.73C403.601 297.535 403.615 297.323 403.704 297.138L411.799 281.202C411.893 281.018 412.056 280.879 412.253 280.815C412.449 280.75 412.663 280.766 412.848 280.859C413.033 280.952 413.172 281.115 413.237 281.311C413.301 281.507 413.285 281.721 413.193 281.905L405.097 297.841C405.033 297.968 404.935 298.075 404.813 298.15C404.691 298.224 404.551 298.264 404.409 298.263Z" fill="#212123"/>
<path d="M360.141 253.94C372.183 251.706 379.918 238.942 377.366 225.443L372.214 196.134L329.168 208.711L333.772 233.395C336.293 246.956 348.1 256.096 360.141 253.94Z" fill="#FF9C9C"/>
<path opacity="0.46" d="M338.626 229.614L335.823 229.036L335.181 228.88C337.227 230.891 339.688 232.432 342.393 233.396C345.097 234.359 347.98 234.721 350.84 234.457C360.705 233.91 368.378 227.473 367.971 220.084V219.365C362.114 228.817 350.104 231.957 338.626 229.614Z" fill="#FF6969"/>
<path d="M368.926 134.501L362.255 133.267C361.478 129.981 359.76 126.991 357.311 124.661C354.862 122.331 351.787 120.761 348.46 120.143C344.916 119.487 341.255 119.939 337.978 121.438C334.702 122.937 331.969 125.41 330.155 128.517C329.815 128.416 329.47 128.332 329.122 128.267C326.179 127.719 323.139 128.359 320.67 130.047C318.2 131.734 316.504 134.331 315.953 137.266C315.436 139.996 315.95 142.819 317.396 145.193C318.841 147.567 321.116 149.323 323.782 150.124L319.084 175.012C318.086 180.371 319.26 185.906 322.349 190.402C325.437 194.898 330.188 197.988 335.557 198.993L356.101 202.821C361.469 203.821 367.015 202.653 371.519 199.574C376.024 196.495 379.118 191.756 380.122 186.401L385.352 158.482C386.355 153.13 385.189 147.598 382.11 143.102C379.03 138.606 374.289 135.513 368.926 134.501Z" fill="#FF6969"/>
<path d="M360.94 144.968C359.258 148.396 356.495 151.179 353.075 152.889C349.656 154.599 345.768 155.142 342.009 154.436C338.349 153.758 335.006 151.923 332.473 149.202C330.648 150.213 328.576 150.694 326.491 150.592C325.018 152.469 324.034 154.681 323.626 157.029L322.06 166.231L320.134 177.652C318.411 187.854 328.198 197.962 341.977 200.337L344.733 200.79C358.513 203.117 371.087 196.712 372.809 186.494L376.301 165.872C376.301 165.716 376.301 165.544 376.301 165.372C377.476 157.076 370.977 148.811 360.94 144.968Z" fill="#FF9C9C"/>
<path d="M376.458 165.372C376.458 165.543 376.458 165.715 376.458 165.872L372.966 186.494C371.666 194.196 364.197 199.727 354.692 200.992C354.175 198.934 353.097 197.059 351.576 195.576C350.056 194.092 348.154 193.058 346.08 192.587L336.372 190.4C334.626 190.007 332.813 190.026 331.076 190.454C329.339 190.883 327.727 191.709 326.366 192.868C321.794 188.619 319.366 183.151 320.29 177.651L322.216 166.231L313.823 201.555C310.692 216.569 321.402 225.849 335.197 228.88L335.839 229.036L338.642 229.614C350.12 231.958 362.13 228.817 367.908 219.365C369.315 217.017 370.3 214.442 370.821 211.757L373.749 192.353L374.203 189.353L376.066 177.089L376.176 176.37C376.364 175.449 376.505 174.511 376.614 173.589C376.935 170.856 376.882 168.091 376.458 165.372Z" fill="#FF6969"/>
<path d="M329.764 177.089C329.422 177.014 329.122 176.809 328.93 176.517C328.737 176.226 328.665 175.87 328.73 175.527L329.263 172.902C329.338 172.56 329.543 172.26 329.835 172.065C330.127 171.87 330.483 171.795 330.829 171.856C331.173 171.927 331.477 172.131 331.673 172.423C331.869 172.715 331.942 173.072 331.878 173.418L331.345 176.043C331.27 176.388 331.062 176.691 330.767 176.886C330.472 177.081 330.112 177.154 329.764 177.089Z" fill="#212123"/>
<path d="M352.97 182.37C352.625 182.298 352.322 182.095 352.125 181.803C351.929 181.51 351.856 181.153 351.921 180.808L352.469 178.183C352.5 178.011 352.566 177.846 352.663 177.7C352.759 177.553 352.884 177.428 353.03 177.33C353.176 177.232 353.34 177.165 353.513 177.132C353.685 177.098 353.863 177.1 354.034 177.136C354.379 177.208 354.682 177.412 354.879 177.704C355.075 177.996 355.148 178.353 355.084 178.699L354.535 181.323C354.502 181.495 354.434 181.658 354.337 181.803C354.24 181.949 354.116 182.074 353.97 182.171C353.825 182.268 353.662 182.336 353.49 182.37C353.318 182.404 353.141 182.404 352.97 182.37Z" fill="#212123"/>
<path d="M334.711 168.778C334.09 168.812 333.472 168.671 332.926 168.372C332.343 168.118 331.748 167.893 331.141 167.7C330.593 167.513 329.967 167.341 329.325 167.185C328.7 167.088 328.112 166.829 327.618 166.435C327.227 166.029 327.227 165.216 328.025 164.466C328.605 164.004 329.296 163.701 330.029 163.586C330.762 163.471 331.512 163.548 332.206 163.81C332.94 164.043 333.608 164.449 334.153 164.993C334.697 165.536 335.104 166.202 335.338 166.935C335.745 168.013 335.259 168.669 334.711 168.778Z" fill="#212123"/>
<path d="M360.172 175.199C359.542 175.188 358.929 174.998 358.403 174.652C357.808 174.34 357.197 174.059 356.665 173.824C356.132 173.59 355.49 173.371 354.864 173.168C354.238 173.033 353.663 172.724 353.204 172.278C352.813 171.809 352.876 170.934 353.721 170.2C354.316 169.743 355.025 169.459 355.771 169.379C356.517 169.299 357.271 169.426 357.949 169.747C358.689 170.048 359.347 170.522 359.867 171.127C360.387 171.733 360.755 172.454 360.939 173.231C361.174 174.418 360.799 175.121 360.172 175.199Z" fill="#212123"/>
<path d="M345.25 186.338H345.14L338.454 184.963C337.691 184.807 336.977 184.468 336.374 183.975C335.771 183.483 335.297 182.851 334.994 182.136C334.693 181.42 334.571 180.644 334.636 179.871C334.702 179.099 334.953 178.353 335.369 177.699L342.603 166.403C342.716 166.229 342.892 166.107 343.095 166.063C343.298 166.019 343.509 166.057 343.684 166.169C343.858 166.281 343.98 166.457 344.024 166.659C344.069 166.861 344.03 167.073 343.919 167.247L336.7 178.542C336.409 178.978 336.232 179.479 336.185 180C336.139 180.522 336.224 181.046 336.434 181.526C336.637 182.01 336.956 182.437 337.362 182.77C337.769 183.102 338.252 183.329 338.767 183.432L345.453 184.807C345.555 184.826 345.652 184.864 345.738 184.921C345.824 184.978 345.898 185.052 345.955 185.138C346.012 185.224 346.051 185.321 346.07 185.422C346.089 185.524 346.087 185.628 346.064 185.729C346.026 185.912 345.922 186.075 345.772 186.188C345.622 186.3 345.436 186.353 345.25 186.338Z" fill="#FF6969"/>
<path d="M339.644 206.023L336.982 205.617C335.698 205.414 334.759 204.539 334.884 203.648L335.776 197.946L350.432 200.383C349.258 208.07 344.999 206.851 339.644 206.023Z" fill="white"/>
<path d="M379.104 174.168L376.614 173.652C376.505 174.574 376.364 175.511 376.176 176.433L376.066 177.152L374.203 189.416L373.749 192.416L375.315 192.728C377.781 193.231 380.347 192.737 382.449 191.354C384.55 189.972 386.017 187.814 386.526 185.354C386.775 184.133 386.781 182.875 386.542 181.652C386.304 180.429 385.827 179.265 385.138 178.226C384.448 177.188 383.561 176.295 382.525 175.598C381.49 174.902 380.327 174.416 379.104 174.168Z" fill="#FF9C9C"/>
<path opacity="0.46" d="M376.066 177.152L374.203 189.416C377.804 189.416 380.842 187.526 381.437 184.635C382.032 181.745 379.73 178.449 376.066 177.152Z" fill="#FF6969"/>
<path d="M383.379 182.26C383.275 182.26 383.175 182.219 383.102 182.146C383.029 182.073 382.987 181.973 382.987 181.87C383.028 181.482 382.989 181.09 382.871 180.718C382.753 180.347 382.559 180.003 382.302 179.71C382.045 179.416 381.729 179.179 381.376 179.013C381.022 178.847 380.638 178.756 380.247 178.745C380.143 178.745 380.044 178.704 379.97 178.631C379.897 178.558 379.856 178.458 379.856 178.355C379.856 178.251 379.897 178.152 379.97 178.079C380.044 178.005 380.143 177.964 380.247 177.964C380.742 177.975 381.229 178.087 381.678 178.293C382.128 178.5 382.53 178.796 382.86 179.163C383.19 179.531 383.441 179.962 383.598 180.43C383.755 180.898 383.813 181.394 383.77 181.886C383.766 181.986 383.723 182.082 383.65 182.152C383.577 182.222 383.48 182.261 383.379 182.26Z" fill="#FF6969"/>
<path d="M390.551 249.424L378.854 231.927L355.491 250.971L332.097 231.927L320.4 249.424L346.221 270.813L352.124 259.033V293.654C352.128 294.67 352.536 295.644 353.258 296.361C353.98 297.079 354.957 297.481 355.976 297.481C356.994 297.481 357.97 297.078 358.689 296.36C359.408 295.642 359.813 294.669 359.813 293.654V260.97L364.745 270.813L390.551 249.424Z" fill="white"/>
<path d="M357.887 266.188C357.887 266.694 357.685 267.179 357.327 267.536C356.969 267.893 356.483 268.094 355.976 268.094C355.468 268.094 354.981 267.894 354.62 267.537C354.259 267.18 354.054 266.695 354.05 266.188C354.05 265.679 354.253 265.19 354.614 264.829C354.976 264.469 355.465 264.267 355.976 264.267C356.484 264.271 356.97 264.475 357.328 264.835C357.686 265.195 357.887 265.681 357.887 266.188Z" fill="#212123"/>
<path d="M355.976 282.155C357.04 282.155 357.902 281.295 357.902 280.234C357.902 279.172 357.04 278.312 355.976 278.312C354.913 278.312 354.05 279.172 354.05 280.234C354.05 281.295 354.913 282.155 355.976 282.155Z" fill="#212123"/>
<path d="M259.284 140.562C259.203 140.538 259.128 140.498 259.064 140.444C258.999 140.391 258.946 140.324 258.908 140.25L250.828 124.877C250.788 124.801 250.763 124.718 250.756 124.633C250.748 124.547 250.758 124.461 250.784 124.38C250.81 124.298 250.853 124.223 250.909 124.158C250.965 124.093 251.033 124.04 251.11 124.002C251.185 123.961 251.267 123.935 251.352 123.927C251.437 123.918 251.523 123.926 251.604 123.951C251.686 123.976 251.762 124.016 251.828 124.071C251.893 124.125 251.948 124.192 251.987 124.267L260.051 139.641C260.092 139.715 260.117 139.797 260.126 139.882C260.135 139.967 260.127 140.052 260.102 140.134C260.077 140.215 260.036 140.291 259.982 140.356C259.927 140.422 259.86 140.476 259.785 140.515C259.629 140.592 259.451 140.609 259.284 140.562Z" fill="white"/>
<path d="M282.287 147.702C282.203 147.681 282.125 147.642 282.057 147.588C281.99 147.534 281.935 147.466 281.895 147.39C281.855 147.314 281.83 147.231 281.822 147.146C281.815 147.06 281.824 146.974 281.851 146.893C281.877 146.811 281.919 146.736 281.975 146.671C282.032 146.606 282.1 146.553 282.177 146.515L297.584 138.453C297.739 138.38 297.916 138.368 298.079 138.421C298.241 138.473 298.378 138.585 298.461 138.734C298.535 138.889 298.546 139.065 298.494 139.227C298.441 139.39 298.329 139.526 298.179 139.609L282.772 147.702C282.696 147.736 282.613 147.754 282.529 147.754C282.446 147.754 282.363 147.736 282.287 147.702Z" fill="white"/>
<path d="M271.372 144.328C271.211 144.277 271.076 144.165 270.997 144.016C270.918 143.867 270.901 143.692 270.95 143.531L277.213 123.736C277.238 123.655 277.279 123.579 277.333 123.513C277.388 123.448 277.455 123.394 277.531 123.355C277.607 123.315 277.69 123.291 277.775 123.285C277.86 123.278 277.946 123.288 278.027 123.314C278.109 123.339 278.185 123.38 278.25 123.435C278.316 123.489 278.37 123.556 278.41 123.632C278.449 123.708 278.473 123.79 278.48 123.875C278.487 123.96 278.476 124.046 278.45 124.127L272.187 143.906C272.162 143.987 272.121 144.063 272.066 144.129C272.011 144.194 271.944 144.248 271.868 144.287C271.793 144.327 271.71 144.351 271.624 144.357C271.539 144.364 271.454 144.354 271.372 144.328Z" fill="white"/>
<path d="M321.762 65.0396H248.777C247.834 65.0396 246.93 65.4132 246.264 66.0783C245.597 66.7434 245.223 67.6454 245.223 68.586V107.988C245.223 108.93 245.597 109.833 246.263 110.501C246.929 111.168 247.833 111.546 248.777 111.55H266.096H266.377H288.3C288.426 111.55 288.551 111.577 288.667 111.628C288.783 111.679 288.887 111.754 288.973 111.847L307.168 131.063C307.3 131.19 307.467 131.276 307.648 131.308C307.828 131.34 308.015 131.318 308.183 131.244C308.351 131.17 308.493 131.049 308.591 130.894C308.689 130.739 308.739 130.559 308.734 130.376V112.534C308.73 112.409 308.75 112.284 308.795 112.167C308.839 112.05 308.906 111.942 308.992 111.851C309.077 111.759 309.18 111.686 309.295 111.634C309.409 111.582 309.532 111.554 309.658 111.55H321.746C322.547 111.506 323.3 111.157 323.85 110.576C324.401 109.995 324.707 109.225 324.706 108.425V68.1485C324.703 67.354 324.398 66.5903 323.851 66.0128C323.304 65.4352 322.557 65.0872 321.762 65.0396Z" fill="#D8F366"/>
<path d="M281.503 77.7425H256.449C256.242 77.7425 256.043 77.6602 255.896 77.5136C255.749 77.367 255.667 77.1683 255.667 76.961C255.667 76.7537 255.749 76.5549 255.896 76.4084C256.043 76.2618 256.242 76.1794 256.449 76.1794H281.503C281.711 76.1794 281.91 76.2618 282.057 76.4084C282.204 76.5549 282.286 76.7537 282.286 76.961C282.286 77.1683 282.204 77.367 282.057 77.5136C281.91 77.6602 281.711 77.7425 281.503 77.7425Z" fill="#212123"/>
<path d="M312.445 88.1944H256.465C256.258 88.1944 256.059 88.1121 255.912 87.9655C255.765 87.8189 255.682 87.6202 255.682 87.4129C255.682 87.2056 255.765 87.0068 255.912 86.8603C256.059 86.7137 256.258 86.6313 256.465 86.6313H312.445C312.653 86.6313 312.852 86.7137 312.999 86.8603C313.145 87.0068 313.228 87.2056 313.228 87.4129C313.228 87.6202 313.145 87.8189 312.999 87.9655C312.852 88.1121 312.653 88.1944 312.445 88.1944Z" fill="#212123"/>
<path d="M312.445 77.7425H287.391C287.183 77.7425 286.984 77.6602 286.837 77.5136C286.691 77.367 286.608 77.1683 286.608 76.961C286.608 76.7537 286.691 76.5549 286.837 76.4084C286.984 76.2618 287.183 76.1794 287.391 76.1794H312.445C312.653 76.1794 312.852 76.2618 312.999 76.4084C313.145 76.5549 313.228 76.7537 313.228 76.961C313.228 77.1683 313.145 77.367 312.999 77.5136C312.852 77.6602 312.653 77.7425 312.445 77.7425Z" fill="#212123"/>
<path d="M281.503 98.9898H256.449C256.242 98.9898 256.043 98.9075 255.896 98.7609C255.749 98.6143 255.667 98.4156 255.667 98.2083C255.667 98.001 255.749 97.8022 255.896 97.6557C256.043 97.5091 256.242 97.4268 256.449 97.4268H281.503C281.71 97.4308 281.907 97.5144 282.052 97.6601C282.198 97.8058 282.282 98.0023 282.286 98.2083C282.286 98.4156 282.204 98.6143 282.057 98.7609C281.91 98.9075 281.711 98.9898 281.503 98.9898Z" fill="#212123"/>
<path d="M312.445 98.9898H287.391C287.183 98.9898 286.984 98.9075 286.837 98.7609C286.691 98.6143 286.608 98.4156 286.608 98.2083C286.612 98.0023 286.696 97.8058 286.842 97.6601C286.988 97.5144 287.185 97.4308 287.391 97.4268H312.445C312.653 97.4268 312.852 97.5091 312.999 97.6557C313.145 97.8022 313.228 98.001 313.228 98.2083C313.228 98.4156 313.145 98.6143 312.999 98.7609C312.852 98.9075 312.653 98.9898 312.445 98.9898Z" fill="#212123"/>
<path d="M180.899 0H267.726C268.852 0 269.931 0.446102 270.727 1.24011C271.523 2.03411 271.97 3.11102 271.97 4.23391V51.1034C271.97 52.2263 271.523 53.3032 270.727 54.0972C269.931 54.8912 268.852 55.3373 267.726 55.3373H247.088H246.744H220.719C220.57 55.339 220.422 55.3702 220.285 55.4292C220.148 55.4882 220.024 55.5738 219.92 55.681L198.265 78.6158C198.109 78.7755 197.907 78.8837 197.688 78.9261C197.468 78.9684 197.241 78.9428 197.037 78.8527C196.832 78.7626 196.66 78.6124 196.544 78.422C196.428 78.2317 196.372 78.0104 196.385 77.7878V56.5559C196.39 56.4061 196.364 56.257 196.311 56.117C196.257 55.977 196.176 55.849 196.073 55.7402C195.97 55.6313 195.846 55.5439 195.709 55.4828C195.572 55.4217 195.424 55.3882 195.274 55.3841H180.899C179.934 55.3555 179.02 54.9465 178.357 54.2466C177.693 53.5467 177.335 52.6131 177.36 51.6502V3.73396C177.335 2.77106 177.693 1.83742 178.357 1.13755C179.02 0.437679 179.934 0.0286077 180.899 0Z" fill="#D8F366"/>
<path d="M257.642 15.452H191.687C191.481 15.448 191.284 15.3643 191.138 15.2186C190.992 15.0729 190.908 14.8765 190.904 14.6704C190.904 14.4632 190.987 14.2644 191.134 14.1178C191.281 13.9713 191.48 13.8889 191.687 13.8889H257.642C257.849 13.8889 258.048 13.9713 258.195 14.1178C258.342 14.2644 258.424 14.4632 258.424 14.6704C258.42 14.8765 258.337 15.0729 258.191 15.2186C258.045 15.3643 257.848 15.448 257.642 15.452Z" fill="#212123"/>
<path d="M235.375 40.887H191.687C191.48 40.887 191.281 40.8047 191.134 40.6581C190.987 40.5116 190.904 40.3128 190.904 40.1055C190.908 39.8995 190.992 39.703 191.138 39.5573C191.284 39.4116 191.481 39.328 191.687 39.324H235.375C235.581 39.328 235.778 39.4116 235.924 39.5573C236.07 39.703 236.154 39.8995 236.158 40.1055C236.158 40.3128 236.075 40.5116 235.929 40.6581C235.782 40.8047 235.583 40.887 235.375 40.887Z" fill="#212123"/>
<path d="M221.736 27.6224H191.687C191.48 27.6224 191.281 27.5401 191.134 27.3935C190.987 27.247 190.904 27.0481 190.904 26.8409C190.904 26.6336 190.987 26.4348 191.134 26.2882C191.281 26.1417 191.48 26.0593 191.687 26.0593H221.736C221.944 26.0593 222.143 26.1417 222.29 26.2882C222.437 26.4348 222.519 26.6336 222.519 26.8409C222.519 27.0481 222.437 27.247 222.29 27.3935C222.143 27.5401 221.944 27.6224 221.736 27.6224Z" fill="#212123"/>
<path d="M257.861 27.6224H227.828C227.621 27.6224 227.421 27.5401 227.275 27.3935C227.128 27.247 227.045 27.0481 227.045 26.8409C227.045 26.6336 227.128 26.4348 227.275 26.2882C227.421 26.1417 227.621 26.0593 227.828 26.0593H257.861C258.069 26.0593 258.268 26.1417 258.415 26.2882C258.562 26.4348 258.644 26.6336 258.644 26.8409C258.644 27.0481 258.562 27.247 258.415 27.3935C258.268 27.5401 258.069 27.6224 257.861 27.6224Z" fill="#212123"/>
<path d="M202.835 423.231L200.846 410.295C205.102 408.555 209.059 406.162 212.574 403.202L223.144 411.014C224.054 411.68 225.191 411.959 226.307 411.789C227.423 411.619 228.425 411.014 229.094 410.108L236.36 400.234C236.704 399.787 236.956 399.277 237.101 398.732C237.246 398.187 237.281 397.619 237.204 397.061C237.127 396.503 236.939 395.965 236.651 395.48C236.364 394.995 235.983 394.571 235.53 394.235L224.96 386.423C226.741 382.2 227.845 377.724 228.233 373.159L241.198 371.175C241.752 371.093 242.285 370.902 242.765 370.614C243.245 370.326 243.663 369.945 243.995 369.495C244.326 369.045 244.566 368.534 244.699 367.991C244.831 367.448 244.855 366.884 244.768 366.332L242.921 354.224C242.747 353.111 242.139 352.112 241.23 351.444C240.32 350.777 239.183 350.495 238.067 350.662L225.086 352.646C223.353 348.402 220.959 344.458 217.992 340.96L225.822 330.398C226.153 329.949 226.393 329.438 226.526 328.896C226.659 328.353 226.684 327.79 226.598 327.238C226.512 326.686 226.318 326.157 226.026 325.68C225.734 325.204 225.351 324.79 224.898 324.461L215.017 317.212C214.105 316.545 212.965 316.266 211.846 316.436C210.728 316.606 209.723 317.211 209.051 318.118L201.222 328.664C196.989 326.888 192.503 325.786 187.928 325.399L185.939 312.463C185.855 311.911 185.663 311.381 185.373 310.903C185.084 310.425 184.703 310.009 184.252 309.678C183.801 309.347 183.289 309.109 182.746 308.975C182.202 308.842 181.638 308.816 181.085 308.901L168.949 310.76C168.396 310.844 167.865 311.036 167.386 311.325C166.907 311.613 166.49 311.994 166.158 312.443C165.827 312.893 165.587 313.404 165.454 313.946C165.32 314.488 165.295 315.051 165.379 315.603L167.368 328.539C163.113 330.264 159.159 332.653 155.655 335.616L145.07 327.805C144.16 327.139 143.023 326.86 141.907 327.03C140.791 327.199 139.789 327.804 139.12 328.711L131.854 338.585C131.186 339.493 130.907 340.628 131.077 341.741C131.247 342.854 131.853 343.854 132.762 344.522L143.332 352.333C141.55 356.561 140.446 361.043 140.059 365.613L127.031 367.675C126.478 367.759 125.947 367.951 125.468 368.24C124.989 368.529 124.572 368.909 124.24 369.359C123.909 369.808 123.669 370.319 123.535 370.861C123.402 371.403 123.376 371.966 123.461 372.518L125.309 384.626C125.393 385.178 125.585 385.708 125.875 386.186C126.164 386.664 126.545 387.08 126.996 387.411C127.447 387.742 127.959 387.981 128.502 388.114C129.045 388.247 129.61 388.273 130.163 388.188L143.144 386.204C144.877 390.453 147.27 394.402 150.237 397.906L142.408 408.452C141.746 409.363 141.471 410.498 141.644 411.61C141.817 412.722 142.424 413.721 143.332 414.388L153.212 421.653C154.128 422.315 155.268 422.589 156.385 422.416C157.502 422.244 158.506 421.638 159.178 420.731L167.008 410.186C171.24 411.962 175.726 413.064 180.302 413.451L182.291 426.387C182.373 426.94 182.564 427.471 182.853 427.95C183.142 428.429 183.523 428.846 183.974 429.177C184.425 429.508 184.938 429.747 185.482 429.879C186.026 430.012 186.591 430.036 187.145 429.949L199.28 428.106C200.399 427.929 201.402 427.316 202.068 426.402C202.735 425.488 203.01 424.348 202.835 423.231ZM151.725 374.377C150.417 365.813 152.573 357.081 157.718 350.102C162.862 343.123 170.575 338.469 179.159 337.163C187.74 335.868 196.486 338.025 203.474 343.16C210.462 348.296 215.121 355.99 216.426 364.551C217.076 368.788 216.883 373.112 215.857 377.276C214.831 381.439 212.994 385.36 210.449 388.814C207.904 392.269 204.702 395.189 201.026 397.408C197.35 399.628 193.271 401.103 189.024 401.749C184.773 402.397 180.436 402.203 176.261 401.178C172.085 400.153 168.153 398.317 164.689 395.775C161.225 393.233 158.297 390.035 156.073 386.364C153.848 382.692 152.371 378.619 151.725 374.377Z" fill="#8C8D92"/>
<path d="M388.609 119.705L387.419 111.894C389.969 110.849 392.341 109.415 394.449 107.644L400.807 112.331C401.354 112.727 402.036 112.892 402.705 112.79C403.373 112.688 403.974 112.326 404.377 111.784L408.746 105.848C409.143 105.301 409.308 104.621 409.205 103.954C409.103 103.287 408.741 102.688 408.198 102.286L401.84 97.5986C402.918 95.0639 403.584 92.3743 403.813 89.6307L411.643 88.4434C412.312 88.3394 412.913 87.9755 413.315 87.4312C413.717 86.8869 413.887 86.2062 413.788 85.5375L412.676 78.2727C412.572 77.6047 412.207 77.005 411.662 76.6041C411.116 76.2032 410.434 76.0336 409.764 76.1323L401.934 77.3197C400.892 74.773 399.455 72.4057 397.675 70.3049L402.373 63.9775C402.573 63.7086 402.718 63.4025 402.8 63.0771C402.881 62.7517 402.896 62.4135 402.845 62.0821C402.794 61.7507 402.678 61.4327 402.503 61.1466C402.327 60.8605 402.097 60.6119 401.825 60.4154L395.89 56.0566C395.62 55.8563 395.314 55.7115 394.988 55.6306C394.661 55.5497 394.323 55.5342 393.99 55.5851C393.658 55.6359 393.339 55.7522 393.053 55.927C392.766 56.1018 392.517 56.3317 392.32 56.6034L387.622 62.8526C385.079 61.79 382.384 61.1311 379.636 60.8997L378.446 53.0882C378.397 52.757 378.282 52.439 378.108 52.1525C377.934 51.866 377.706 51.6167 377.435 51.419C377.164 51.2214 376.856 51.0794 376.53 51.0012C376.204 50.923 375.865 50.9101 375.534 50.9634L368.253 52.0727C367.583 52.1767 366.982 52.5405 366.58 53.0848C366.178 53.6291 366.008 54.3098 366.107 54.9786L367.297 62.7901C364.747 63.8349 362.376 65.2685 360.267 67.0396L354.003 62.3527C353.455 61.9516 352.769 61.7838 352.097 61.8863C351.425 61.9889 350.821 62.3532 350.417 62.8995L346.064 68.8207C345.864 69.0897 345.718 69.3957 345.637 69.7211C345.556 70.0464 345.541 70.3847 345.592 70.7161C345.643 71.0475 345.759 71.3655 345.934 71.6516C346.11 71.9377 346.34 72.1863 346.612 72.3828L352.954 77.0697C351.893 79.6098 351.228 82.2968 350.981 85.0376L343.152 86.2249C342.483 86.3288 341.883 86.6932 341.484 87.238C341.085 87.7829 340.919 88.4638 341.022 89.1308L342.134 96.4112C342.183 96.7424 342.298 97.0604 342.472 97.3469C342.646 97.6334 342.875 97.8827 343.146 98.0803C343.416 98.2779 343.724 98.42 344.05 98.4982C344.377 98.5764 344.715 98.5892 345.046 98.536L352.876 97.3486C353.911 99.8989 355.349 102.267 357.135 104.363L352.437 110.706C352.239 110.976 352.095 111.282 352.015 111.607C351.935 111.932 351.92 112.27 351.971 112.601C352.022 112.932 352.138 113.249 352.312 113.535C352.486 113.822 352.715 114.071 352.985 114.268L358.92 118.627C359.19 118.826 359.497 118.969 359.823 119.048C360.149 119.128 360.487 119.143 360.819 119.092C361.15 119.042 361.469 118.926 361.755 118.752C362.042 118.579 362.292 118.351 362.49 118.081L367.188 111.753C369.731 112.816 372.426 113.475 375.174 113.706L376.364 121.518C376.468 122.186 376.833 122.785 377.378 123.186C377.924 123.587 378.606 123.757 379.276 123.658L386.557 122.549C387.197 122.423 387.765 122.06 388.146 121.531C388.527 121.003 388.693 120.351 388.609 119.705ZM357.933 90.3807C357.542 87.8344 357.657 85.2361 358.272 82.7343C358.887 80.2324 359.991 77.8761 361.519 75.7998C363.047 73.7236 364.971 71.9682 367.179 70.634C369.388 69.2998 371.838 68.4128 374.391 68.0239C376.945 67.6289 379.553 67.741 382.064 68.3539C384.575 68.9668 386.94 70.0684 389.023 71.5954C391.107 73.1225 392.867 75.0448 394.204 77.2524C395.541 79.4599 396.428 81.9091 396.814 84.4595C397.205 87.0027 397.091 89.5981 396.476 92.0971C395.861 94.596 394.759 96.9496 393.232 99.0231C391.705 101.097 389.783 102.849 387.577 104.181C385.37 105.513 382.922 106.398 380.372 106.785C377.819 107.183 375.212 107.073 372.701 106.463C370.19 105.853 367.824 104.755 365.739 103.231C363.655 101.707 361.892 99.7873 360.553 97.5822C359.213 95.377 358.323 92.9297 357.933 90.3807Z" fill="#8C8D92"/>
</svg>
