<svg width="160" height="24" viewBox="0 0 160 24" fill="none" xmlns="http://www.w3.org/2000/svg">
<path d="M0 2.33255H7.35876C9.15436 2.33255 10.7496 2.68525 12.1444 3.39067C13.5392 4.08005 14.6213 5.06603 15.3909 6.3486C16.1604 7.61514 16.5452 9.08208 16.5452 10.7494C16.5452 12.4168 16.1604 13.8917 15.3909 15.1743C14.6213 16.4408 13.5392 17.4268 12.1444 18.1322C10.7496 18.8216 9.15436 19.1663 7.35876 19.1663H0V2.33255ZM7.21447 16.521C8.44895 16.521 9.53112 16.2885 10.461 15.8236C11.4069 15.3426 12.1283 14.6693 12.6253 13.8036C13.1384 12.9218 13.3949 11.9037 13.3949 10.7494C13.3949 9.59511 13.1384 8.58509 12.6253 7.71935C12.1283 6.83758 11.4069 6.16423 10.461 5.6993C9.53112 5.21834 8.44895 4.97785 7.21447 4.97785H3.12627V16.521H7.21447Z" fill="#212123"/>
<path d="M24.9502 19.3347C23.6516 19.3347 22.4812 19.0541 21.4391 18.493C20.397 17.9318 19.5794 17.1543 18.9862 16.1603C18.409 15.1503 18.1205 14.012 18.1205 12.7454C18.1205 11.4789 18.409 10.3486 18.9862 9.35463C19.5794 8.36064 20.397 7.58308 21.4391 7.02195C22.4812 6.46083 23.6516 6.18026 24.9502 6.18026C26.2648 6.18026 27.4432 6.46083 28.4853 7.02195C29.5274 7.58308 30.337 8.36064 30.9141 9.35463C31.5073 10.3486 31.8039 11.4789 31.8039 12.7454C31.8039 14.012 31.5073 15.1503 30.9141 16.1603C30.337 17.1543 29.5274 17.9318 28.4853 18.493C27.4432 19.0541 26.2648 19.3347 24.9502 19.3347ZM24.9502 16.7615C26.0564 16.7615 26.9702 16.3927 27.6917 15.6553C28.4131 14.9178 28.7738 13.9478 28.7738 12.7454C28.7738 11.543 28.4131 10.5731 27.6917 9.8356C26.9702 9.09812 26.0564 8.72938 24.9502 8.72938C23.844 8.72938 22.9301 9.09812 22.2087 9.8356C21.5033 10.5731 21.1506 11.543 21.1506 12.7454C21.1506 13.9478 21.5033 14.9178 22.2087 15.6553C22.9301 16.3927 23.844 16.7615 24.9502 16.7615Z" fill="#212123"/>
<path d="M50.0292 19.1663L50.0052 8.00793L44.4741 17.2425H43.0793L37.5482 8.15222V19.1663H34.5662V2.33255H37.1394L43.8248 13.4909L50.3899 2.33255H52.9631L52.9872 19.1663H50.0292Z" fill="#212123"/>
<path d="M68.8689 6.32455L62.8568 20.2004C62.2957 21.5952 61.6143 22.5731 60.8127 23.1343C60.0111 23.7114 59.0412 24 57.9029 24C57.2616 24 56.6283 23.8958 56.0031 23.6874C55.3778 23.479 54.8648 23.1904 54.464 22.8216L55.6664 20.6092C55.955 20.8818 56.2917 21.0982 56.6764 21.2585C57.0772 21.4188 57.478 21.499 57.8788 21.499C58.4079 21.499 58.8408 21.3627 59.1775 21.0902C59.5302 20.8176 59.8508 20.3607 60.1394 19.7194L60.3558 19.2144L54.7526 6.32455H57.8788L61.9189 15.8236L65.9831 6.32455H68.8689Z" fill="#212123"/>
<path d="M78.3096 19.4068C76.6102 19.4068 75.0712 19.0381 73.6924 18.3006C72.3297 17.5471 71.2555 16.513 70.4699 15.1984C69.7004 13.8837 69.3156 12.4007 69.3156 10.7494C69.3156 9.09812 69.7084 7.61514 70.494 6.30051C71.2795 4.98587 72.3537 3.95981 73.7164 3.22233C75.0952 2.46882 76.6343 2.09206 78.3337 2.09206C79.7125 2.09206 80.971 2.33255 82.1093 2.81351C83.2475 3.29448 84.2095 3.99187 84.9951 4.90571L82.975 6.80552C81.7566 5.49088 80.2575 4.83356 78.478 4.83356C77.3237 4.83356 76.2896 5.09008 75.3758 5.60311C74.4619 6.1001 73.7485 6.7975 73.2355 7.6953C72.7224 8.5931 72.4659 9.61115 72.4659 10.7494C72.4659 11.8877 72.7224 12.9058 73.2355 13.8036C73.7485 14.7014 74.4619 15.4068 75.3758 15.9198C76.2896 16.4168 77.3237 16.6653 78.478 16.6653C80.2575 16.6653 81.7566 16 82.975 14.6693L84.9951 16.5932C84.2095 17.507 83.2395 18.2044 82.0852 18.6853C80.9469 19.1663 79.6884 19.4068 78.3096 19.4068Z" fill="#212123"/>
<path d="M92.6031 19.3347C91.3045 19.3347 90.1341 19.0541 89.092 18.493C88.0499 17.9318 87.2323 17.1543 86.6391 16.1603C86.0619 15.1503 85.7734 14.012 85.7734 12.7454C85.7734 11.4789 86.0619 10.3486 86.6391 9.35463C87.2323 8.36064 88.0499 7.58308 89.092 7.02195C90.1341 6.46083 91.3045 6.18026 92.6031 6.18026C93.9177 6.18026 95.0961 6.46083 96.1382 7.02195C97.1802 7.58308 97.9899 8.36064 98.567 9.35463C99.1602 10.3486 99.4568 11.4789 99.4568 12.7454C99.4568 14.012 99.1602 15.1503 98.567 16.1603C97.9899 17.1543 97.1802 17.9318 96.1382 18.493C95.0961 19.0541 93.9177 19.3347 92.6031 19.3347ZM92.6031 16.7615C93.7093 16.7615 94.6231 16.3927 95.3446 15.6553C96.066 14.9178 96.4267 13.9478 96.4267 12.7454C96.4267 11.543 96.066 10.5731 95.3446 9.8356C94.6231 9.09812 93.7093 8.72938 92.6031 8.72938C91.4968 8.72938 90.583 9.09812 89.8616 9.8356C89.1561 10.5731 88.8034 11.543 88.8034 12.7454C88.8034 13.9478 89.1561 14.9178 89.8616 15.6553C90.583 16.3927 91.4968 16.7615 92.6031 16.7615Z" fill="#212123"/>
<path d="M114.508 1.32252V19.1663H111.622V17.507C111.125 18.1162 110.508 18.5731 109.77 18.8777C109.049 19.1823 108.247 19.3347 107.365 19.3347C106.131 19.3347 105.017 19.0621 104.023 18.517C103.045 17.9719 102.275 17.2024 101.714 16.2084C101.153 15.1984 100.872 14.044 100.872 12.7454C100.872 11.4468 101.153 10.3005 101.714 9.30654C102.275 8.31254 103.045 7.543 104.023 6.9979C105.017 6.45281 106.131 6.18026 107.365 6.18026C108.215 6.18026 108.993 6.32455 109.698 6.61313C110.404 6.90171 111.005 7.33458 111.502 7.91174V1.32252H114.508ZM107.726 16.7615C108.448 16.7615 109.097 16.6012 109.674 16.2805C110.251 15.9438 110.708 15.4709 111.045 14.8617C111.381 14.2525 111.55 13.547 111.55 12.7454C111.55 11.9438 111.381 11.2384 111.045 10.6292C110.708 10.02 110.251 9.55503 109.674 9.23439C109.097 8.89772 108.448 8.72938 107.726 8.72938C107.005 8.72938 106.355 8.89772 105.778 9.23439C105.201 9.55503 104.744 10.02 104.407 10.6292C104.071 11.2384 103.902 11.9438 103.902 12.7454C103.902 13.547 104.071 14.2525 104.407 14.8617C104.744 15.4709 105.201 15.9438 105.778 16.2805C106.355 16.6012 107.005 16.7615 107.726 16.7615Z" fill="#212123"/>
<path d="M118.039 6.32455H121.045V19.1663H118.039V6.32455ZM119.554 4.20831C119.009 4.20831 118.552 4.03997 118.184 3.7033C117.815 3.35059 117.631 2.91772 117.631 2.40469C117.631 1.89166 117.815 1.46681 118.184 1.13013C118.552 0.777428 119.009 0.601074 119.554 0.601074C120.1 0.601074 120.556 0.769412 120.925 1.10609C121.294 1.42673 121.478 1.83555 121.478 2.33255C121.478 2.86161 121.294 3.31051 120.925 3.67925C120.572 4.03196 120.116 4.20831 119.554 4.20831Z" fill="#212123"/>
<path d="M131.877 6.18026C133.496 6.18026 134.795 6.65321 135.772 7.59911C136.75 8.54501 137.239 9.94782 137.239 11.8076V19.1663H134.233V12.1923C134.233 11.0701 133.969 10.2284 133.44 9.66726C132.911 9.0901 132.157 8.80152 131.179 8.80152C130.073 8.80152 129.199 9.1382 128.558 9.81155C127.917 10.4689 127.596 11.4228 127.596 12.6733V19.1663H124.59V6.32455H127.452V7.98388C127.949 7.39069 128.574 6.94179 129.328 6.63718C130.081 6.33257 130.931 6.18026 131.877 6.18026Z" fill="#212123"/>
<path d="M153.515 6.32455V17.2184C153.515 21.7395 151.206 24 146.589 24C145.355 24 144.184 23.8397 143.078 23.519C141.972 23.2144 141.058 22.7655 140.336 22.1723L141.683 19.9118C142.244 20.3767 142.95 20.7455 143.799 21.018C144.665 21.3066 145.539 21.4509 146.421 21.4509C147.832 21.4509 148.866 21.1303 149.523 20.489C150.18 19.8477 150.509 18.8697 150.509 17.5551V16.8817C149.996 17.4429 149.371 17.8677 148.633 18.1563C147.896 18.4449 147.086 18.5892 146.204 18.5892C144.986 18.5892 143.88 18.3326 142.886 17.8196C141.908 17.2906 141.13 16.5531 140.553 15.6072C139.992 14.6613 139.711 13.5791 139.711 12.3607C139.711 11.1422 139.992 10.0681 140.553 9.1382C141.13 8.1923 141.908 7.46284 142.886 6.94981C143.88 6.43678 144.986 6.18026 146.204 6.18026C147.134 6.18026 147.976 6.33257 148.729 6.63718C149.499 6.94179 150.14 7.40672 150.653 8.03198V6.32455H153.515ZM146.661 16.04C147.799 16.04 148.729 15.7034 149.451 15.03C150.188 14.3406 150.557 13.4508 150.557 12.3607C150.557 11.2865 150.188 10.4128 149.451 9.7394C148.729 9.06605 147.799 8.72938 146.661 8.72938C145.507 8.72938 144.561 9.06605 143.823 9.7394C143.102 10.4128 142.741 11.2865 142.741 12.3607C142.741 13.4508 143.102 14.3406 143.823 15.03C144.561 15.7034 145.507 16.04 146.661 16.04Z" fill="#212123"/>
<path d="M158.028 19.3347C157.483 19.3347 157.018 19.1503 156.633 18.7815C156.248 18.3968 156.056 17.9158 156.056 17.3386C156.056 16.7455 156.24 16.2645 156.609 15.8958C156.994 15.527 157.467 15.3426 158.028 15.3426C158.589 15.3426 159.054 15.527 159.423 15.8958C159.808 16.2645 160 16.7455 160 17.3386C160 17.9158 159.808 18.3968 159.423 18.7815C159.038 19.1503 158.573 19.3347 158.028 19.3347Z" fill="#212123"/>
</svg>
